<svg xmlns="http://www.w3.org/2000/svg" viewBox="-5 -10 110 135"><path d="M97.34 26.141c-.148-.047-.3-.07-.465-.07H75.488v-3.942h7.508c.234 0 .469-.054.68-.156a4.85 4.85 0 0 0 9.047-2.434L92.715 8a4.856 4.856 0 0 0-4.852-4.851 4.846 4.846 0 0 0-4.246 2.512l-.074-.043a1.563 1.563 0 0 0-.77-.204H65.035c-4.707 0-9.094 1.891-12.352 5.32a14.797 14.797 0 0 0-3.617-4.472c-2.406-2.008-5.34-3.113-8.258-3.113-3.496 0-6.867 1.515-9.484 4.265-2.473 2.598-3.89 5.918-3.89 9.114 0 3.968 1.284 7.164 3.812 9.539H20.098v-7.172l2.05-3.547c.2-.348.262-.758.165-1.148L19.539 2.75a1.562 1.562 0 0 0-1.515-1.195H12.48c-.72 0-1.348.492-1.516 1.196L8.192 14.2c-.094.39-.036.8.164 1.148l2.05 3.547v7.172l-7.28.004a1.562 1.562 0 0 0-1.563 1.563l.004 69.241a1.565 1.565 0 0 0 1.562 1.563h93.746a1.562 1.562 0 0 0 1.563-1.563l-.004-69.242c0-.7-.461-1.293-1.098-1.492zm-9.3 3.05h7.273v31.57h-5.715V36.47a1.565 1.565 0 0 0-1.563-1.563h-12.55v-5.715zm-12.552 31.57V38.029h10.988v22.734zM65.035 8.54h17.328l1.446.82a1.563 1.563 0 0 0 2.332-1.356 1.727 1.727 0 0 1 3.453 0v11.544a1.727 1.727 0 0 1-3.453 0c0-.57-.313-1.094-.817-1.368-.5-.273-1.11-.25-1.59.059l-1.199.77h-8.61c-.863 0-1.562.699-1.562 1.562v40.195h-4.308l.004-40.195c0-.863-.7-1.562-1.563-1.562-.602 0-1.191-.004-1.762-.008-5.027-.032-9.156-.055-13.78 2.394a15.232 15.232 0 0 1 2.558-6.73c.004-.004.004-.008.008-.012.426-.617.898-1.203 1.414-1.75 2.664-2.816 6.254-4.367 10.105-4.367zm-16.28 52.227V38.032h16.183v22.734zm3-36.234c4.234-2.457 7.984-2.434 12.964-2.403h.219v3.95H50.372c.512-.485.977-1 1.383-1.547zm-3 4.668h16.183v5.715H48.754zm-18.2-12.66c0-4.746 4.48-10.258 10.254-10.258 4.7 0 8.387 3.629 9.707 7.265a18.458 18.458 0 0 0-2.781 10.7c-.41.335-.855.648-1.34.937-.472.281-.762.789-.762 1.34v34.25H35.99l-.004-34.258c0-.551-.289-1.059-.762-1.344-3.14-1.867-4.668-4.695-4.668-8.64zm-5.597 44.23v-5.875a5.29 5.29 0 0 0-1.813-3.985c.512-.71.816-1.586.816-2.527a4.34 4.34 0 0 0-3.863-4.305v-6.043h12.766V60.77zM10.872 47.172h8.753c.657 0 1.211.554 1.211 1.207 0 .668-.543 1.21-1.21 1.21h-8.754c-.668 0-1.211-.542-1.211-1.21 0-.656.554-1.207 1.21-1.207zM8.66 54.89c0-1.2.976-2.176 2.175-2.176h8.82c1.2 0 2.177.976 2.177 2.176v5.875l-13.168-.004v-5.875zM32.86 29.196v5.714l-12.766-.004v-5.714H32.86zM13.704 4.684h3.086l2.335 9.648-1.945 3.367c-.137.238-.21.508-.21.781l.003 25.566h-3.45V18.48c0-.273-.07-.543-.21-.78l-1.945-3.368zM4.688 29.196h5.715v14.879a4.337 4.337 0 0 0-3.863 4.304c0 .942.304 1.813.816 2.528a5.29 5.29 0 0 0-1.813 3.984v5.875h-.851zm90.625 66.12H4.688v-31.43h90.625zM36.68 22.115c.277.484.793.78 1.352.78h5.547c.558 0 1.074-.296 1.351-.78l2.773-4.801a1.552 1.552 0 0 0 0-1.563l-2.773-4.804a1.555 1.555 0 0 0-1.352-.782h-5.546c-.559 0-1.075.297-1.352.782l-2.77 4.804a1.564 1.564 0 0 0 0 1.559l2.77 4.8zm2.254-8.825h3.742l1.871 3.243-1.87 3.238H38.93l-1.867-3.238 1.867-3.243zm21.688 54.145H39.38c-.863 0-1.563.7-1.563 1.563v6.66c0 .863.7 1.563 1.563 1.563h21.242c.863 0 1.562-.7 1.562-1.563v-6.66c0-.863-.699-1.563-1.562-1.563zm-1.563 6.66H40.94v-3.538h18.12z"/><text y="117.5" font-size="5" font-weight="bold" font-family="Arbeit Regular, Helvetica, Arial-Unicode, Arial, Sans-serif" fill="#fff">Created by Loka Jaya</text><text y="122.5" font-size="5" font-weight="bold" font-family="Arbeit Regular, Helvetica, Arial-Unicode, Arial, Sans-serif" fill="#fff">from Noun Project</text></svg>