<svg xmlns="http://www.w3.org/2000/svg" viewBox="-5 -10 110 135"><path d="M41.984 84.57c-3.914 0-7.727-.547-11.473-1.625a1.358 1.358 0 0 1-.984-1.309h-.008v-7.43a33.38 33.38 0 0 1-8.156-4.718l-6.434 3.715c-.555.32-1.234.21-1.664-.227a41.593 41.593 0 0 1-7.137-9.117 41.18 41.18 0 0 1-4.332-10.75c-.148-.613.14-1.23.664-1.523l6.414-3.704a33.447 33.447 0 0 1 0-9.43l-6.437-3.718a1.36 1.36 0 0 1-.633-1.531 41.153 41.153 0 0 1 4.324-10.727 41.504 41.504 0 0 1 7.172-9.149 1.367 1.367 0 0 1 1.63-.195l6.433 3.715a33.261 33.261 0 0 1 8.156-4.719l-.004-7.441c0-.672.484-1.23 1.121-1.344a41.546 41.546 0 0 1 5.547-1.18A41.465 41.465 0 0 1 53.48 3.378c.598.172.988.719.984 1.309h.008v7.43a33.38 33.38 0 0 1 8.156 4.718l6.434-3.715a1.368 1.368 0 0 1 1.664.227 41.593 41.593 0 0 1 7.137 9.117 41.18 41.18 0 0 1 4.332 10.75c.148.613-.14 1.23-.664 1.523l-6.414 3.703.195 1.684h5.351c3.282 0 5.965 2.68 5.965 5.965v7.683h7.188a4.43 4.43 0 0 1 4.422 4.422v7.133c0 3.207-1.32 6.11-3.446 8.211l-.004 19.723a4.991 4.991 0 0 1-4.98 4.98H46.964a4.991 4.991 0 0 1-4.98-4.98zm1.383-45.703V34.57c0-.758-.61-1.367-1.367-1.367s-1.368.61-1.368 1.367v4.297a4.513 4.513 0 0 0-2.921 5.695l-2.586 1.856c-.61.437-.75 1.289-.313 1.898s1.29.75 1.899.313l2.582-1.852a4.503 4.503 0 0 0 5.882-.426c2.41-2.398 1.387-6.468-1.808-7.484zm-.113 3.043c-1.118-1.117-3.032-.32-3.032 1.254 0 1.578 1.914 2.367 3.032 1.254a1.775 1.775 0 0 0 0-2.508zM32.48 56.93a16.791 16.791 0 0 1-4.247-4.242l2-1.156a1.36 1.36 0 1 0-1.359-2.36l-2.004 1.156a16.59 16.59 0 0 1-1.547-5.797h2.305c.758 0 1.367-.609 1.367-1.367s-.61-1.367-1.367-1.367h-2.305a16.51 16.51 0 0 1 1.551-5.793l2 1.156a1.364 1.364 0 0 0 1.86-.5 1.364 1.364 0 0 0-.5-1.86l-1.997-1.147a16.84 16.84 0 0 1 4.243-4.243l1.148 1.996a1.36 1.36 0 1 0 2.36-1.359l-1.157-2a16.68 16.68 0 0 1 5.793-1.55V28.8c0 .758.61 1.367 1.367 1.367.758 0 1.368-.61 1.368-1.367v-2.305c2.058.164 4.015.703 5.793 1.547l-1.157 2a1.364 1.364 0 0 0 .5 1.86 1.364 1.364 0 0 0 1.86-.5l1.152-1.997a16.88 16.88 0 0 1 4.984 5.407l-2.773-.739a1.36 1.36 0 0 0-1.664.973 1.36 1.36 0 0 0 .973 1.664l5.539 1.477c.785.226 1.543-.215 1.734-1.012l1.477-5.54a1.36 1.36 0 0 0-.973-1.663 1.36 1.36 0 0 0-1.664.972l-.547 2.063a19.455 19.455 0 0 0-16.602-9.3c-10.75 0-19.465 8.714-19.465 19.464 0 7.965 4.86 15.078 12.117 18.027.7.281 1.496-.055 1.781-.754a1.371 1.371 0 0 0-.754-1.781 32.11 32.11 0 0 1-.84-.367l1.157-2a1.364 1.364 0 0 0-.5-1.86 1.364 1.364 0 0 0-1.86.5zm27.996 31.531h15.82c.757 0 1.367-.61 1.367-1.367s-.61-1.367-1.367-1.367h-15.82c-.758 0-1.368.609-1.368 1.367s.614 1.367 1.368 1.367zm7.914-22.32c4.445 0 8.07 3.57 8.14 8.008h10.164c4.836 0 8.817-3.961 8.817-8.817l-.004-7.129c0-.925-.762-1.687-1.688-1.687H42.957c-.926 0-1.687.762-1.687 1.687v7.133c0 4.856 3.976 8.817 8.816 8.817h10.16a8.148 8.148 0 0 1 8.145-8.012zm7.714 10.742c-1.914 5.684-9.187 7.445-13.473 3.16a8.147 8.147 0 0 1-1.96-3.16H50.086c-1.938 0-3.766-.484-5.368-1.332v17.711a2.256 2.256 0 0 0 2.246 2.246h42.852a2.256 2.256 0 0 0 2.247-2.246V75.551a11.471 11.471 0 0 1-5.368 1.332zm-3.894-6.422c-3.398-3.398-9.23-.976-9.23 3.824 0 4.805 5.835 7.22 9.23 3.825a5.413 5.413 0 0 0 0-7.649zm11.688-16.68v-7.683a3.241 3.241 0 0 0-3.23-3.227l-24.556-.004a3.241 3.241 0 0 0-3.23 3.227v7.683h4.055v-5.492c0-.758.609-1.367 1.367-1.367h20.172c.758 0 1.367.61 1.367 1.367v5.492zm-33.75 0v-7.683c0-3.282 2.684-5.965 5.965-5.965h16.46l-.288-2.168a1.364 1.364 0 0 1 .664-1.41L79.3 32.89a38.638 38.638 0 0 0-9.757-16.883L63.2 19.671a1.366 1.366 0 0 1-1.555-.132 30.621 30.621 0 0 0-4.285-2.989 31.129 31.129 0 0 0-4.64-2.187 1.367 1.367 0 0 1-.97-1.309V5.726a39.033 39.033 0 0 0-19.492 0v7.328c0 .555-.343 1.078-.898 1.281a31.074 31.074 0 0 0-4.71 2.211c-1.5.868-2.911 1.848-4.22 2.934a1.365 1.365 0 0 1-1.617.187l-6.351-3.66A38.633 38.633 0 0 0 4.704 32.89l6.304 3.64c.504.267.805.837.704 1.43a31.02 31.02 0 0 0 0 10.407c.09.546-.157 1.109-.664 1.406l-6.344 3.664a38.638 38.638 0 0 0 9.758 16.883l6.343-3.664a1.366 1.366 0 0 1 1.555.133 30.621 30.621 0 0 0 4.285 2.988 31.129 31.129 0 0 0 4.64 2.187c.563.172.97.692.97 1.309v7.328c3.16.82 6.414 1.234 9.73 1.234v-8.289c-2.125-2.101-3.445-5.007-3.445-8.21l-.004-7.133a4.43 4.43 0 0 1 4.422-4.422zm9.523 0H77.11v-4.125H59.672z" fill-rule="evenodd"/><text y="117.5" font-size="5" font-weight="bold" font-family="Arbeit Regular, Helvetica, Arial-Unicode, Arial, Sans-serif" fill="#fff">Created by captain_kid</text><text y="122.5" font-size="5" font-weight="bold" font-family="Arbeit Regular, Helvetica, Arial-Unicode, Arial, Sans-serif" fill="#fff">from Noun Project</text></svg>