<svg xmlns="http://www.w3.org/2000/svg" version="1.1" viewBox="-5.0 -10.0 110.0 135.0">
 <path d="m41.984 84.57c-3.9141 0-7.7266-0.54687-11.473-1.625-0.59766-0.17187-0.98828-0.71875-0.98438-1.3086h-0.007813v-7.4297c-2.9336-1.1797-5.6719-2.7695-8.1562-4.7188l-6.4336 3.7148c-0.55469 0.32031-1.2344 0.21094-1.6641-0.22656-2.7812-2.6836-5.1914-5.75-7.1367-9.1172-1.918-3.3203-3.3906-6.9297-4.332-10.75-0.14844-0.61328 0.14062-1.2305 0.66406-1.5234l6.4141-3.7031c-0.44531-3.125-0.44531-6.3047 0-9.4297l-6.4375-3.7188c-0.54688-0.31641-0.78906-0.95312-0.63281-1.5312 0.94141-3.8125 2.4102-7.4141 4.3242-10.727 1.9531-3.3789 4.375-6.4609 7.1719-9.1484 0.44922-0.42969 1.1172-0.49219 1.6289-0.19531l6.4336 3.7148c2.4844-1.9531 5.2227-3.5391 8.1562-4.7188l-0.003906-7.4414c0-0.67188 0.48438-1.2305 1.1211-1.3438 1.8125-0.51562 3.668-0.91406 5.5469-1.1797 5.8203-0.82031 11.656-0.40234 17.297 1.2148 0.59766 0.17188 0.98828 0.71875 0.98438 1.3086h0.007812v7.4297c2.9336 1.1797 5.6719 2.7695 8.1562 4.7188l6.4336-3.7148c0.55469-0.32031 1.2344-0.21094 1.6641 0.22656 2.7812 2.6836 5.1914 5.75 7.1367 9.1172 1.918 3.3203 3.3906 6.9297 4.332 10.75 0.14844 0.61328-0.14062 1.2305-0.66406 1.5234l-6.4141 3.7031 0.19531 1.6836h5.3516c3.2812 0 5.9648 2.6797 5.9648 5.9648v7.6836h7.1875c2.4336 0 4.4219 1.9844 4.4219 4.4219v7.1328c0 3.207-1.3203 6.1094-3.4453 8.2109l-0.003907 19.723c0 2.7422-2.2383 4.9805-4.9805 4.9805h-42.844c-2.7422 0-4.9805-2.2383-4.9805-4.9805zm1.3828-45.703v-4.2969c0-0.75781-0.60938-1.3672-1.3672-1.3672s-1.3672 0.60938-1.3672 1.3672v4.2969c-2.3672 0.75-3.7031 3.3047-2.9219 5.6953l-2.5859 1.8555c-0.60938 0.4375-0.75 1.2891-0.3125 1.8984s1.2891 0.75 1.8984 0.3125l2.582-1.8516c1.7969 1.3438 4.3047 1.1562 5.8828-0.42578 2.4102-2.3984 1.3867-6.4688-1.8086-7.4844zm-0.11328 3.043c-1.1172-1.1172-3.0312-0.32031-3.0312 1.2539 0 1.5781 1.9141 2.3672 3.0312 1.2539 0.69141-0.69141 0.69141-1.8164 0-2.5078zm-10.773 15.02c-1.6562-1.1484-3.1016-2.5859-4.2461-4.2422l2-1.1562c0.65234-0.375 0.875-1.207 0.5-1.8594s-1.207-0.875-1.8594-0.5l-2.0039 1.1562c-0.84375-1.7812-1.3828-3.7344-1.5469-5.7969h2.3047c0.75781 0 1.3672-0.60938 1.3672-1.3672 0-0.75781-0.60938-1.3672-1.3672-1.3672h-2.3047c0.16406-2.0586 0.70312-4.0117 1.5508-5.793l2 1.1562c0.65234 0.375 1.4844 0.14844 1.8594-0.5 0.375-0.65234 0.14844-1.4844-0.5-1.8594l-1.9961-1.1484c1.1484-1.6562 2.5859-3.0938 4.2422-4.2422l1.1484 1.9961c0.375 0.65234 1.207 0.875 1.8594 0.5 0.65234-0.375 0.875-1.207 0.5-1.8594l-1.1562-2c1.7812-0.84375 3.7344-1.3828 5.793-1.5508v2.3047c0 0.75781 0.60938 1.3672 1.3672 1.3672 0.75781 0 1.3672-0.60938 1.3672-1.3672v-2.3047c2.0586 0.16406 4.0156 0.70312 5.793 1.5469l-1.1562 2c-0.375 0.65234-0.14844 1.4844 0.5 1.8594 0.65234 0.375 1.4844 0.14844 1.8594-0.5l1.1523-1.9961c2.0273 1.3984 3.75 3.2734 4.9844 5.4062l-2.7734-0.73828c-0.72656-0.19141-1.4766 0.24219-1.6641 0.97266-0.19141 0.72656 0.24219 1.4766 0.97266 1.6641l5.5391 1.4766c0.78516 0.22656 1.543-0.21484 1.7344-1.0117l1.4766-5.5391c0.19141-0.72656-0.24219-1.4766-0.97266-1.6641-0.72656-0.19141-1.4766 0.24219-1.6641 0.97266l-0.54688 2.0625c-3.5078-5.7148-9.7344-9.3008-16.602-9.3008-10.75 0-19.465 8.7148-19.465 19.465 0 7.9648 4.8594 15.078 12.117 18.027 0.69922 0.28125 1.4961-0.054688 1.7812-0.75391 0.28125-0.69922-0.054687-1.4961-0.75391-1.7812-0.28125-0.11719-0.5625-0.24219-0.83984-0.36719l1.1562-2c0.375-0.65234 0.14844-1.4844-0.5-1.8594-0.65234-0.375-1.4844-0.14844-1.8594 0.5zm27.996 31.531h15.82c0.75781 0 1.3672-0.60938 1.3672-1.3672s-0.60937-1.3672-1.3672-1.3672h-15.82c-0.75781 0-1.3672 0.60938-1.3672 1.3672s0.61328 1.3672 1.3672 1.3672zm7.9141-22.32c4.4453 0 8.0703 3.5703 8.1406 8.0078h10.164c4.8359 0 8.8164-3.9609 8.8164-8.8164l-0.003907-7.1289c0-0.92578-0.76172-1.6875-1.6875-1.6875h-50.863c-0.92578 0-1.6875 0.76172-1.6875 1.6875v7.1328c0 4.8555 3.9766 8.8164 8.8164 8.8164h10.16c0.074218-4.4414 3.6953-8.0117 8.1445-8.0117zm7.7148 10.742c-1.9141 5.6836-9.1875 7.4453-13.473 3.1602-0.875-0.875-1.5547-1.9531-1.9609-3.1602h-10.586c-1.9375 0-3.7656-0.48437-5.3672-1.332v17.711c0 1.2344 1.0156 2.2461 2.2461 2.2461h42.852c1.2344 0 2.2461-1.0156 2.2461-2.2461v-17.711c-1.6055 0.84766-3.4336 1.332-5.3672 1.332zm-3.8945-6.4219c-3.3984-3.3984-9.2305-0.97656-9.2305 3.8242 0 4.8047 5.8359 7.2188 9.2305 3.8242 2.1094-2.1133 2.1094-5.5391 0-7.6484zm11.688-16.68v-7.6836c0-1.7734-1.457-3.2266-3.2305-3.2266l-24.555-0.003906c-1.7734 0-3.2305 1.4531-3.2305 3.2266v7.6836h4.0547v-5.4922c0-0.75781 0.60938-1.3672 1.3672-1.3672h20.172c0.75781 0 1.3672 0.60938 1.3672 1.3672v5.4922zm-33.75 0v-7.6836c0-3.2812 2.6836-5.9648 5.9648-5.9648h16.461l-0.28906-2.168c-0.09375-0.54688 0.15625-1.1172 0.66406-1.4102l6.3516-3.6641c-1.7578-6.3906-5.1328-12.195-9.7578-16.883l-6.3438 3.6641c-0.48047 0.27734-1.1016 0.24219-1.5547-0.13281-1.3281-1.1055-2.7617-2.1094-4.2852-2.9883-1.4688-0.84766-3.0234-1.582-4.6406-2.1875-0.5625-0.17188-0.96875-0.69141-0.96875-1.3086v-7.3281c-6.3516-1.6484-13.141-1.6484-19.492 0v7.3281c0 0.55469-0.34375 1.0781-0.89844 1.2812-1.6445 0.60937-3.2188 1.3516-4.7109 2.2109-1.5 0.86719-2.9102 1.8477-4.2188 2.9336-0.42969 0.40234-1.0859 0.49609-1.6172 0.1875l-6.3516-3.6602c-4.625 4.6875-8 10.492-9.7578 16.883l6.3047 3.6406c0.50391 0.26562 0.80469 0.83594 0.70313 1.4297-0.58594 3.4688-0.58594 6.9375 0 10.406 0.089843 0.54687-0.15625 1.1094-0.66406 1.4062l-6.3438 3.6641c1.7578 6.3906 5.1328 12.195 9.7578 16.883l6.3438-3.6641c0.48047-0.27734 1.1016-0.24219 1.5547 0.13281 1.3281 1.1055 2.7617 2.1094 4.2852 2.9883 1.4688 0.84766 3.0234 1.582 4.6406 2.1875 0.5625 0.17188 0.96875 0.69141 0.96875 1.3086v7.3281c3.1602 0.82031 6.4141 1.2344 9.7305 1.2344v-8.2891c-2.125-2.1016-3.4453-5.0078-3.4453-8.2109l-0.003906-7.1328c0-2.4336 1.9844-4.4219 4.4219-4.4219zm9.5234 0h17.438v-4.125h-17.438z" fill-rule="evenodd"/>
<text x="0.0" y="117.5" font-size="5.0" font-weight="bold" font-family="Arbeit Regular, Helvetica, Arial-Unicode, Arial, Sans-serif" fill="#fff">Created by captain_kid</text><text x="0.0" y="122.5" font-size="5.0" font-weight="bold" font-family="Arbeit Regular, Helvetica, Arial-Unicode, Arial, Sans-serif" fill="#fff">from Noun Project</text></svg>