<svg xmlns="http://www.w3.org/2000/svg" version="1.1" viewBox="-5.0 -10.0 110.0 135.0">
 <path d="m97.34 26.141c-0.14844-0.046875-0.30078-0.070313-0.46484-0.070313h-21.387v-3.9414h7.5078c0.23438 0 0.46875-0.054687 0.67969-0.15625 0.83984 1.4453 2.4062 2.418 4.1953 2.418 2.6758 0 4.8516-2.1758 4.8516-4.8516l-0.007812-11.539c0-2.6758-2.1758-4.8516-4.8516-4.8516-1.8281 0-3.4219 1.0156-4.2461 2.5117l-0.074219-0.042968c-0.23438-0.13281-0.5-0.20313-0.76953-0.20313h-17.738c-4.707 0-9.0938 1.8906-12.352 5.3203-0.88281-1.6836-2.1172-3.2227-3.6172-4.4727-2.4062-2.0078-5.3398-3.1133-8.2578-3.1133-3.4961 0-6.8672 1.5156-9.4844 4.2656-2.4727 2.5977-3.8906 5.918-3.8906 9.1133 0 3.9688 1.2852 7.1641 3.8125 9.5391h-11.148v-7.1719l2.0508-3.5469c0.19922-0.34766 0.26172-0.75781 0.16406-1.1484l-2.7734-11.449c-0.16797-0.69922-0.79687-1.1953-1.5156-1.1953h-5.543c-0.71875 0-1.3477 0.49219-1.5156 1.1953l-2.7734 11.449c-0.09375 0.39062-0.035156 0.80078 0.16406 1.1484l2.0508 3.5469v7.1719l-7.2812 0.003906c-0.16016 0-0.31641 0.023438-0.46484 0.070313-0.63672 0.19922-1.0977 0.78906-1.0977 1.4922l0.003906 69.242c0 0.69922 0.46094 1.293 1.0977 1.4922 0.14844 0.046874 0.30078 0.070312 0.46484 0.070312h93.746c0.16016 0 0.31641-0.023438 0.46484-0.070312 0.63672-0.19922 1.0977-0.78906 1.0977-1.4922l-0.003906-69.242c0-0.69922-0.46094-1.293-1.0977-1.4922zm-9.3008 3.0508h7.2734v31.57h-5.7148v-24.293c0-0.69922-0.46094-1.293-1.0977-1.4922-0.14844-0.046874-0.30078-0.070312-0.46484-0.070312h-12.551v-5.7148zm-12.551 31.57v-22.734h10.988v22.734zm-10.453-52.223h17.328l1.4453 0.82031c0.48438 0.27344 1.0781 0.26953 1.5547-0.007813 0.48047-0.28125 0.77734-0.79297 0.77734-1.3477 0-0.95312 0.77344-1.7266 1.7266-1.7266 0.95312 0 1.7266 0.77344 1.7266 1.7266v11.543c0 0.95312-0.77344 1.7266-1.7266 1.7266-0.95313 0-1.7227-0.77344-1.7266-1.7266 0-0.57031-0.3125-1.0938-0.81641-1.3672-0.5-0.27344-1.1094-0.25-1.5898 0.058593l-1.1992 0.76953h-8.6094c-0.86328 0-1.5625 0.69922-1.5625 1.5625v40.195h-4.3086l0.003906-40.195c0-0.86328-0.69922-1.5625-1.5625-1.5625-0.60156 0-1.1914-0.003906-1.7617-0.007812-5.0273-0.03125-9.1562-0.054688-13.781 2.3945 0.30469-2.4258 1.1875-4.7383 2.5586-6.7305 0.003906-0.003906 0.003906-0.007812 0.007812-0.011718 0.42578-0.61719 0.89844-1.2031 1.4141-1.75 2.6641-2.8164 6.2539-4.3672 10.105-4.3672zm-16.281 52.227v-22.734h16.184v22.734zm3-36.234c4.2344-2.457 7.9844-2.4336 12.965-2.4023h0.21875v3.9492h-14.566c0.51172-0.48438 0.97656-1 1.3828-1.5469zm-3 4.668h16.184v5.7148h-16.184zm-18.199-12.66c0-4.7461 4.4805-10.258 10.254-10.258 4.6992 0 8.3867 3.6289 9.707 7.2656-1.9766 3.1484-2.9688 6.8984-2.7812 10.699-0.41016 0.33594-0.85547 0.64844-1.3398 0.9375-0.47266 0.28125-0.76172 0.78906-0.76172 1.3398v34.25h-9.6445l-0.003906-34.258c0-0.55078-0.28906-1.0586-0.76172-1.3438-3.1406-1.8672-4.668-4.6953-4.668-8.6406zm-5.5977 44.23v-5.875c0-1.5859-0.70312-3.0117-1.8125-3.9844 0.51172-0.71094 0.81641-1.5859 0.81641-2.5273 0-2.2266-1.6953-4.0703-3.8633-4.3047v-6.043h12.766v22.734zm-14.086-13.598h8.7539c0.65625 0 1.2109 0.55469 1.2109 1.207 0 0.66797-0.54297 1.2109-1.2109 1.2109h-8.7539c-0.66797 0-1.2109-0.54297-1.2109-1.2109 0-0.65625 0.55469-1.207 1.2109-1.207zm-2.2109 7.7188c0-1.1992 0.97656-2.1758 2.1758-2.1758h8.8203c1.1992 0 2.1758 0.97656 2.1758 2.1758v5.875l-13.168-0.003906v-5.875zm24.199-25.695v5.7148l-12.766-0.003906v-5.7148h12.766zm-19.156-24.512h3.0859l2.3359 9.6484-1.9453 3.3672c-0.13672 0.23828-0.21094 0.50781-0.21094 0.78125l0.003906 25.566h-3.4492v-25.566c0-0.27344-0.070313-0.54297-0.21094-0.78125l-1.9453-3.3672zm-9.0156 24.512h5.7148v14.879c-2.168 0.23438-3.8633 2.0742-3.8633 4.3047 0 0.94141 0.30469 1.8125 0.81641 2.5273-1.1094 0.97266-1.8125 2.3984-1.8125 3.9844v5.875h-0.85156zm90.625 66.121h-90.625v-31.43h90.625zm-58.633-73.203c0.27734 0.48438 0.79297 0.78125 1.3516 0.78125h5.5469c0.55859 0 1.0742-0.29688 1.3516-0.78125l2.7734-4.8008c0.28125-0.48438 0.28125-1.0781 0-1.5625l-2.7734-4.8047c-0.27734-0.48437-0.79297-0.78125-1.3516-0.78125h-5.5469c-0.55859 0-1.0742 0.29688-1.3516 0.78125l-2.7695 4.8047c-0.27734 0.48438-0.27734 1.0781 0 1.5586l2.7695 4.8008zm2.2539-8.8242h3.7422l1.8711 3.2422-1.8711 3.2383h-3.7461l-1.8672-3.2383 1.8672-3.2422zm21.688 54.145h-21.242c-0.86328 0-1.5625 0.69922-1.5625 1.5625v6.6602c0 0.86328 0.69922 1.5625 1.5625 1.5625h21.242c0.86328 0 1.5625-0.69922 1.5625-1.5625v-6.6602c0-0.86328-0.69922-1.5625-1.5625-1.5625zm-1.5625 6.6602h-18.121v-3.5391h18.121z"/>
<text x="0.0" y="117.5" font-size="5.0" font-weight="bold" font-family="Arbeit Regular, Helvetica, Arial-Unicode, Arial, Sans-serif" fill="#fff">Created by Loka Jaya</text><text x="0.0" y="122.5" font-size="5.0" font-weight="bold" font-family="Arbeit Regular, Helvetica, Arial-Unicode, Arial, Sans-serif" fill="#fff">from Noun Project</text></svg>